<?xml version="1.0" encoding="UTF-8"?>
<svg xmlns="http://www.w3.org/2000/svg" width="600" height="560" viewBox="0 0 600 560" fill="none" role="img" aria-labelledby="titleId descId">
  <title id="titleId">Selected Repositories Dashboard</title>
  <desc id="descId">Shows selected repositories and their language composition</desc>
<style>

    :root {
      /* Light Theme (Chetwode and Porsche) */
      --md-sys-color-surface: #fcfcfc;
      --md-sys-color-on-surface: #1a1c1e;
      --md-sys-color-surface-variant: #e1e2e8;
      --md-sys-color-on-surface-variant: #44474e;
      --md-sys-color-surface-container: #f0f5fd; /* Chetwode 50 */
      
      --md-sys-color-primary: #5a67d1; /* Chetwode 600 */
      --md-sys-color-on-primary: #ffffff;
      --md-sys-color-primary-container: #e4edfb; /* Chetwode 100 */
      --md-sys-color-on-primary-container: #384077; /* Chetwode 900 */
      
      --md-sys-color-tertiary: #c46f32; /* Porsche 600 */
      --md-sys-color-on-tertiary: #ffffff;
      --md-sys-color-tertiary-container: #f8eedc; /* Porsche 100 */
      --md-sys-color-on-tertiary-container: #6a3b24; /* Porsche 900 */
      
      --md-sys-color-outline: #74777f;
      --md-sys-color-outline-variant: #c4c7c5;
    }
    
    @media (prefers-color-scheme: dark) {
      :root {
        /* Dark Theme (Chetwode and Porsche) */
        --md-sys-color-surface: #1a1c1e;
        --md-sys-color-on-surface: #e2e2e6;
        --md-sys-color-surface-variant: #44474e;
        --md-sys-color-on-surface-variant: #c4c6d0;
        --md-sys-color-surface-container: #212545; /* Chetwode 950 */
        
        --md-sys-color-primary: #b0c6f1; /* Chetwode 300 */
        --md-sys-color-on-primary: #3e4795; /* Chetwode 800 */
        --md-sys-color-primary-container: #4a54b8; /* Chetwode 700 */
        --md-sys-color-on-primary-container: #e4edfb; /* Chetwode 100 */
        
        --md-sys-color-tertiary: #e5bf8c; /* Porsche 300 */
        --md-sys-color-on-tertiary: #82462a; /* Porsche 800 */
        --md-sys-color-tertiary-container: #a2572c; /* Porsche 700 */
        --md-sys-color-on-tertiary-container: #f8eedc; /* Porsche 100 */
        
        --md-sys-color-outline: #8e9099;
        --md-sys-color-outline-variant: #444746;
      }
    }
    

    .m3-headline-small {
      font-family: 'Roboto', 'Google Sans', system-ui, sans-serif;
      font-size: 24px;
      font-weight: 400;
      line-height: 32px;
      fill: var(--md-sys-color-on-surface);
    }
    .m3-title-medium {
      font-family: 'Roboto', 'Google Sans', system-ui, sans-serif;
      font-size: 16px;
      font-weight: 500;
      line-height: 24px;
      letter-spacing: 0.15px;
      fill: var(--md-sys-color-on-surface);
    }
    .m3-title-small {
      font-family: 'Roboto', 'Google Sans', system-ui, sans-serif;
      font-size: 14px;
      font-weight: 500;
      line-height: 20px;
      letter-spacing: 0.1px;
      fill: var(--md-sys-color-on-surface);
    }
    .m3-body-large {
      font-family: 'Roboto', 'Google Sans', system-ui, sans-serif;
      font-size: 16px;
      font-weight: 400;
      line-height: 24px;
      letter-spacing: 0.5px;
      fill: var(--md-sys-color-on-surface-variant);
    }
    .m3-body-medium {
      font-family: 'Roboto', 'Google Sans', system-ui, sans-serif;
      font-size: 14px;
      font-weight: 400;
      line-height: 20px;
      letter-spacing: 0.25px;
      fill: var(--md-sys-color-on-surface-variant);
    }
    .m3-body-small {
      font-family: 'Roboto', 'Google Sans', system-ui, sans-serif;
      font-size: 12px;
      font-weight: 400;
      line-height: 16px;
      letter-spacing: 0.4px;
      fill: var(--md-sys-color-on-surface-variant);
    }
    .m3-label-large {
      font-family: 'Roboto', 'Google Sans', system-ui, sans-serif;
      font-size: 14px;
      font-weight: 500;
      line-height: 20px;
      letter-spacing: 0.1px;
      fill: var(--md-sys-color-primary);
    }
    .m3-label-medium {
      font-family: 'Roboto', 'Google Sans', system-ui, sans-serif;
      font-size: 12px;
      font-weight: 500;
      line-height: 16px;
      letter-spacing: 0.5px;
      fill: var(--md-sys-color-on-surface-variant);
    }
    .m3-display-small {
      font-family: 'Roboto', 'Google Sans', system-ui, sans-serif;
      font-size: 36px;
      font-weight: 400;
      line-height: 44px;
      fill: var(--md-sys-color-on-surface);
    }
    

    .m3-container-large {
      rx: 12px;
      fill: var(--md-sys-color-surface);
      stroke: var(--md-sys-color-outline-variant);
      stroke-width: 1px;
    }
    .m3-card-medium {
      rx: 8px;
      fill: var(--md-sys-color-surface-container);
      stroke: var(--md-sys-color-outline-variant);
      stroke-width: 0.5px;
    }
    .m3-bar-chart {
      rx: 2px;
    }
    .m3-divider {
      stroke: var(--md-sys-color-outline-variant);
      stroke-width: 1px;
      opacity: 0.5;
    }
    
</style>
<rect class="m3-container-large" x="0.5" y="0.5" width="599" height="559" />
  <text x="24" y="36" class="m3-headline-small">Selected Repositories</text>
  <text x="24" y="56" class="m3-body-small">Featured projects breakdown</text>
  <g transform="translate(24, 76)">
    <rect x="0" y="0" width="552" height="88" class="m3-card-medium" />
    <text x="16" y="24" class="m3-title-medium">nahpu/nahpu</text>
    <text x="16" y="40" class="m3-body-small">A cross-platform (mobile and desktop) digital catalog app for natural history...</text>
    <clipPath id="repo-bar-clip-0">
      <rect x="16" y="48" width="520" height="6" rx="1.5" />
    </clipPath>
    <g clip-path="url(#repo-bar-clip-0)">
      <rect x="16" y="48" width="520" height="6" fill="var(--md-sys-color-surface-variant)" />
      <rect x="16.00" y="48" width="484.36" height="6" fill="#00B4AB" />
      <rect x="500.36" y="48" width="8.61" height="6" fill="#dea584" />
      <rect x="508.97" y="48" width="8.21" height="6" fill="#f34b7d" />
      <rect x="517.18" y="48" width="7.55" height="6" fill="#DA3434" />
      <rect x="524.74" y="48" width="4.76" height="6" fill="#3572A5" />
      <rect x="529.49" y="48" width="2.25" height="6" fill="#89e051" />
      <rect x="531.74" y="48" width="1.92" height="6" fill="#701516" />
      <rect x="533.66" y="48" width="0.94" height="6" fill="#F05138" />
      <rect x="534.60" y="48" width="0.71" height="6" fill="#C1F12E" />
      <rect x="535.30" y="48" width="0.70" height="6" fill="#012456" />
    </g>
            <circle cx="20.0" cy="72" r="4" fill="#00B4AB" />
      <text x="28.0" y="76" class="m3-label-medium">Dart 93.1%</text>
      <circle cx="104.0" cy="72" r="4" fill="#dea584" />
      <text x="112.0" y="76" class="m3-label-medium">Rust 1.7%</text>
      <circle cx="188.0" cy="72" r="4" fill="#f34b7d" />
      <text x="196.0" y="76" class="m3-label-medium">C++ 1.6%</text>
      <circle cx="265.0" cy="72" r="4" fill="#DA3434" />
      <text x="273.0" y="76" class="m3-label-medium">CMake 1.5%</text>
  </g>
  <g transform="translate(24, 172)">
    <rect x="0" y="0" width="552" height="88" class="m3-card-medium" />
    <text x="16" y="24" class="m3-title-medium">hhandika/segul</text>
    <text x="16" y="40" class="m3-body-small">An ultrafast and memory efficient tool for phylogenomics</text>
    <clipPath id="repo-bar-clip-1">
      <rect x="16" y="48" width="520" height="6" rx="1.5" />
    </clipPath>
    <g clip-path="url(#repo-bar-clip-1)">
      <rect x="16" y="48" width="520" height="6" fill="var(--md-sys-color-surface-variant)" />
      <rect x="16.00" y="48" width="519.52" height="6" fill="#dea584" />
      <rect x="535.52" y="48" width="0.48" height="6" fill="#89e051" />
    </g>
            <circle cx="20.0" cy="72" r="4" fill="#dea584" />
      <text x="28.0" y="76" class="m3-label-medium">Rust 99.9%</text>
      <circle cx="104.0" cy="72" r="4" fill="#89e051" />
      <text x="112.0" y="76" class="m3-label-medium">Shell 0.1%</text>
  </g>
  <g transform="translate(24, 268)">
    <rect x="0" y="0" width="552" height="88" class="m3-card-medium" />
    <text x="16" y="24" class="m3-title-medium">hhandika/segui</text>
    <text x="16" y="40" class="m3-body-small">A GUI version of the SEGUL phylogenomic tool</text>
    <clipPath id="repo-bar-clip-2">
      <rect x="16" y="48" width="520" height="6" rx="1.5" />
    </clipPath>
    <g clip-path="url(#repo-bar-clip-2)">
      <rect x="16" y="48" width="520" height="6" fill="var(--md-sys-color-surface-variant)" />
      <rect x="16.00" y="48" width="347.25" height="6" fill="#00B4AB" />
      <rect x="363.25" y="48" width="97.15" height="6" fill="#dea584" />
      <rect x="460.40" y="48" width="16.41" height="6" fill="#DA3434" />
      <rect x="476.80" y="48" width="16.18" height="6" fill="#f34b7d" />
      <rect x="492.98" y="48" width="12.12" height="6" fill="#3572A5" />
      <rect x="505.11" y="48" width="10.14" height="6" fill="#fcb32c" />
      <rect x="515.25" y="48" width="9.86" height="6" fill="#3178c6" />
      <rect x="525.11" y="48" width="4.84" height="6" fill="#89e051" />
      <rect x="529.95" y="48" width="4.26" height="6" fill="#701516" />
      <rect x="534.21" y="48" width="1.79" height="6" fill="#012456" />
    </g>
            <circle cx="20.0" cy="72" r="4" fill="#00B4AB" />
      <text x="28.0" y="76" class="m3-label-medium">Dart 66.8%</text>
      <circle cx="104.0" cy="72" r="4" fill="#dea584" />
      <text x="112.0" y="76" class="m3-label-medium">Rust 18.7%</text>
      <circle cx="188.0" cy="72" r="4" fill="#DA3434" />
      <text x="196.0" y="76" class="m3-label-medium">CMake 3.2%</text>
      <circle cx="279.0" cy="72" r="4" fill="#f34b7d" />
      <text x="287.0" y="76" class="m3-label-medium">C++ 3.1%</text>
  </g>
  <g transform="translate(24, 364)">
    <rect x="0" y="0" width="552" height="88" class="m3-card-medium" />
    <text x="16" y="24" class="m3-title-medium">hhandika/ullar</text>
    <text x="16" y="40" class="m3-body-small">A lightweight phylo and population genomic pipeline designed from the ground ...</text>
    <clipPath id="repo-bar-clip-3">
      <rect x="16" y="48" width="520" height="6" rx="1.5" />
    </clipPath>
    <g clip-path="url(#repo-bar-clip-3)">
      <rect x="16" y="48" width="520" height="6" fill="var(--md-sys-color-surface-variant)" />
      <rect x="16.00" y="48" width="519.93" height="6" fill="#dea584" />
      <rect x="535.93" y="48" width="0.07" height="6" fill="#3572A5" />
      <rect x="536.00" y="48" width="0.00" height="6" fill="#8e918f" />
    </g>
            <circle cx="20.0" cy="72" r="4" fill="#dea584" />
      <text x="28.0" y="76" class="m3-label-medium">Rust 100.0%</text>
      <circle cx="104.0" cy="72" r="4" fill="#3572A5" />
      <text x="112.0" y="76" class="m3-label-medium">Python 0.0%</text>
      <circle cx="202.0" cy="72" r="4" fill="#8e918f" />
      <text x="210.0" y="76" class="m3-label-medium">RenderScript 0.0%</text>
  </g>
  <g transform="translate(24, 460)">
    <rect x="0" y="0" width="552" height="88" class="m3-card-medium" />
    <text x="16" y="24" class="m3-title-medium">mammaldiversity/mdd_app</text>
    <text x="16" y="40" class="m3-body-small">An app for viewing mammal diversity database</text>
    <clipPath id="repo-bar-clip-4">
      <rect x="16" y="48" width="520" height="6" rx="1.5" />
    </clipPath>
    <g clip-path="url(#repo-bar-clip-4)">
      <rect x="16" y="48" width="520" height="6" fill="var(--md-sys-color-surface-variant)" />
      <rect x="16.00" y="48" width="388.32" height="6" fill="#00B4AB" />
      <rect x="404.32" y="48" width="44.91" height="6" fill="#dea584" />
      <rect x="449.23" y="48" width="23.75" height="6" fill="#DA3434" />
      <rect x="472.98" y="48" width="23.67" height="6" fill="#f34b7d" />
      <rect x="496.65" y="48" width="20.36" height="6" fill="#3572A5" />
      <rect x="517.01" y="48" width="6.50" height="6" fill="#89e051" />
      <rect x="523.52" y="48" width="6.22" height="6" fill="#701516" />
      <rect x="529.74" y="48" width="2.52" height="6" fill="#F05138" />
      <rect x="532.25" y="48" width="2.29" height="6" fill="#C1F12E" />
      <rect x="534.54" y="48" width="1.46" height="6" fill="#555555" />
    </g>
            <circle cx="20.0" cy="72" r="4" fill="#00B4AB" />
      <text x="28.0" y="76" class="m3-label-medium">Dart 74.7%</text>
      <circle cx="104.0" cy="72" r="4" fill="#dea584" />
      <text x="112.0" y="76" class="m3-label-medium">Rust 8.6%</text>
      <circle cx="188.0" cy="72" r="4" fill="#DA3434" />
      <text x="196.0" y="76" class="m3-label-medium">CMake 4.6%</text>
      <circle cx="279.0" cy="72" r="4" fill="#f34b7d" />
      <text x="287.0" y="76" class="m3-label-medium">C++ 4.6%</text>
  </g></svg>
